<svg width="660" height="480" viewBox="0 0 660 480" fill="none" xmlns="http://www.w3.org/2000/svg">
<path fill-rule="evenodd" clip-rule="evenodd" d="M426.984 479.82C419.798 480.14 412.539 480.033 405.206 479.5C397.874 478.967 390.541 478.06 383.208 476.78C375.875 475.5 368.469 473.9 360.99 471.98C353.511 470.06 346.104 467.767 338.772 465.101C331.292 462.541 323.813 459.714 316.334 456.621C309.001 453.421 301.595 449.955 294.115 446.221C286.783 442.595 279.45 438.702 272.117 434.542C264.785 430.382 257.525 426.062 250.339 421.582C243.006 416.996 235.82 412.249 228.781 407.343C221.742 402.543 214.775 397.53 207.883 392.304C200.99 387.184 194.17 381.904 187.424 376.464C180.678 371.025 174.079 365.531 167.626 359.985C161.173 354.332 154.794 348.679 148.488 343.026C142.328 337.266 136.242 331.506 130.229 325.746C124.363 319.987 118.643 314.227 113.071 308.467C107.498 302.601 102.071 296.841 96.7919 291.188C91.5124 285.428 86.4528 279.722 81.6132 274.069C76.7736 268.415 72.154 262.869 67.7544 257.429C63.3547 251.989 59.1017 246.656 54.9954 241.43C51.0357 236.203 47.2961 231.084 43.7764 226.071C40.2566 221.057 37.0302 216.204 34.0972 211.511C31.0174 206.818 28.1577 202.232 25.5179 197.752C22.8781 193.379 20.5316 189.059 18.4785 184.792C16.2786 180.632 14.2988 176.526 12.539 172.473C10.7791 168.526 9.23923 164.686 7.91934 160.953C6.4528 157.22 5.27956 153.54 4.39963 149.914C3.37305 146.394 2.49313 142.981 1.75985 139.674C1.17324 136.261 0.733272 133.008 0.439963 129.915C0.146654 126.715 0 123.675 0 120.795C0 117.808 0.146654 114.875 0.439963 111.995C0.733272 109.222 1.24656 106.502 1.97983 103.836C2.56645 101.276 3.2264 98.7159 3.95967 96.156C4.8396 93.7028 5.86618 91.3029 7.03941 88.9563C8.06599 86.5031 9.31256 84.2098 10.7791 82.0766C12.099 79.8367 13.4922 77.6501 14.9588 75.5169C16.572 73.3836 18.1852 71.3037 19.7984 69.2771C21.5582 67.2505 23.3914 65.2773 25.2979 63.3574C27.2044 61.4374 29.1842 59.5708 31.2374 57.7576C33.2906 55.9443 35.417 54.1311 37.6169 52.3178C39.8167 50.6112 42.0898 48.9046 44.4363 47.198C46.7828 45.4914 49.1292 43.7848 51.4757 42.0782C53.9688 40.4783 56.5353 38.8784 59.1751 37.2784C61.6682 35.7852 64.308 34.2919 67.0944 32.7986C69.7342 31.3054 72.5206 29.8654 75.4537 28.4788C78.3868 26.9855 81.3199 25.5989 84.253 24.319C87.3327 23.039 90.4858 21.7591 93.7122 20.4791C96.9386 19.3059 100.238 18.1326 103.611 16.9593C107.131 15.786 110.651 14.7194 114.17 13.7594C117.837 12.6928 121.577 11.6795 125.39 10.7196C129.203 9.86625 133.089 9.01296 137.049 8.15966C141.155 7.30636 145.335 6.55973 149.588 5.91975C153.841 5.17312 158.167 4.53314 162.566 3.99983C167.113 3.35986 171.732 2.82655 176.425 2.3999C181.118 1.86659 185.958 1.43994 190.944 1.11995C195.93 0.799967 201.063 0.586642 206.343 0.47998C211.622 0.266656 217.049 0.106662 222.621 0C228.048 0 233.694 0.0533311 239.56 0.159993C245.426 0.159993 251.366 0.319987 257.379 0.639973C263.538 0.853298 269.771 1.17328 276.077 1.59993C282.53 1.91992 289.129 2.34657 295.875 2.87988C302.621 3.51985 309.441 4.15983 316.334 4.7998C323.373 5.54644 330.486 6.39973 337.672 7.35969C344.858 8.21299 352.117 9.17295 359.45 10.2396C366.783 11.4129 374.115 12.6395 381.448 13.9194C388.928 15.1994 396.407 16.586 403.886 18.0792C411.366 19.5725 418.845 21.1725 426.324 22.879C433.657 24.5856 441.063 26.4522 448.543 28.4788C455.875 30.3987 463.208 32.4253 470.541 34.5586C477.874 36.7985 485.06 39.145 492.099 41.5983C499.138 44.0515 506.104 46.6114 512.997 49.2779C519.89 51.9445 526.636 54.771 533.236 57.7576C539.835 60.7441 546.288 63.8907 552.594 67.1972C558.9 70.3971 564.986 73.7569 570.852 77.2768C576.719 80.7966 582.365 84.4765 587.791 88.3163C593.217 92.1562 598.423 96.156 603.41 100.316C608.249 104.476 612.869 108.795 617.269 113.275C621.668 117.755 625.775 122.395 629.588 127.195C633.401 131.994 636.847 136.954 639.927 142.074C643.006 147.301 645.793 152.634 648.286 158.073C650.632 163.62 652.612 169.273 654.225 175.033C655.985 180.899 657.305 186.926 658.185 193.112C659.065 199.192 659.652 205.431 659.945 211.831C660.092 218.231 659.945 224.737 659.505 231.35C659.065 237.857 658.259 244.47 657.085 251.19C656.059 257.803 654.665 264.469 652.906 271.189C651.146 278.015 649.166 284.788 646.966 291.508C644.62 298.228 642.053 304.894 639.267 311.507C636.334 318.227 633.181 324.84 629.807 331.346C626.434 337.853 622.841 344.306 619.028 350.705C615.215 356.998 611.109 363.185 606.709 369.265C602.456 375.451 597.984 381.424 593.291 387.184C588.598 392.944 583.685 398.543 578.552 403.983C573.419 409.423 568.066 414.596 562.493 419.503C557.067 424.516 551.421 429.262 545.555 433.742C539.688 438.222 533.676 442.435 527.516 446.381C521.503 450.328 515.27 454.008 508.818 457.421C502.365 460.727 495.839 463.714 489.239 466.381C482.64 469.047 475.894 471.287 469.001 473.1C462.108 475.02 455.142 476.567 448.103 477.74C441.21 478.807 434.171 479.5 426.984 479.82Z" fill="#00807D" fill-opacity="0.164706"/>
</svg>
